<?xml version="1.0" encoding="utf-8"?>
<!-- Generator: Adobe Illustrator 19.1.1, SVG Export Plug-In . SVG Version: 6.00 Build 0)  -->
<svg version="1.1"  xmlns="http://www.w3.org/2000/svg" xmlns:xlink="http://www.w3.org/1999/xlink" x="0px" y="0px"
	 viewBox="0 0 48 48" enable-background="new 0 0 48 48" xml:space="preserve">
<path fill="#03A9F4" d="M34.4,43H13.6C8.9,43,5,39.1,5,34.4V13.6C5,8.9,8.9,5,13.6,5h20.7c4.8,0,8.6,3.9,8.6,8.6v20.7
	C43,39.1,39.1,43,34.4,43z"/>
<path fill="#81D4FA" d="M36,34.6c2.5-2.8,4-6.5,4-10.6c0-4.1-1.5-7.7-4-10.6l2.8-2.8c0,0,0,0,0,0l2.4-2.4c-0.4-0.5-0.9-1-1.4-1.4
	L34.6,12C31.7,9.5,28.1,8,24,8s-7.7,1.5-10.6,4L8.3,6.9c-0.5,0.4-1,0.9-1.4,1.4l5.1,5.1C9.5,16.3,8,19.9,8,24s1.5,7.7,4,10.6
	l-5.1,5.1c0.4,0.5,0.9,1,1.4,1.4l2.4-2.4c0,0,0,0,0,0l2.8-2.8c2.8,2.5,6.5,4,10.6,4c4.1,0,7.7-1.5,10.6-4l5.1,5.1
	c0.5-0.4,1-0.9,1.4-1.4L36,34.6z M38,24c0,3.5-1.3,6.7-3.4,9.2L31,29.6c1.2-1.5,2-3.5,2-5.6c0-2.1-0.7-4.1-2-5.6l3.5-3.5
	C36.7,17.3,38,20.5,38,24z M17,24c0-1.6,0.5-3,1.4-4.2l4.2,4.2l-4.2,4.2C17.5,27,17,25.6,17,24z M24,22.6l-4.2-4.2
	C21,17.5,22.4,17,24,17c1.6,0,3,0.5,4.2,1.4L24,22.6z M24,25.4l4.2,4.2C27,30.5,25.6,31,24,31s-3-0.5-4.2-1.4L24,25.4z M25.4,24
	l4.2-4.2C30.5,21,31,22.4,31,24s-0.5,3-1.4,4.2L25.4,24z M24,10c3.5,0,6.7,1.3,9.2,3.4L29.6,17c-1.5-1.2-3.5-2-5.6-2
	c-2.1,0-4.1,0.7-5.6,2l-3.5-3.5C17.3,11.3,20.5,10,24,10z M10,24c0-3.5,1.3-6.7,3.4-9.2l3.5,3.5c-1.2,1.5-2,3.5-2,5.6
	c0,2.1,0.7,4.1,2,5.6l-3.5,3.5C11.3,30.7,10,27.5,10,24z M24,38c-3.5,0-6.7-1.3-9.2-3.4l3.5-3.5c1.5,1.2,3.5,2,5.6,2
	c2.1,0,4.1-0.7,5.6-2l3.5,3.5C30.7,36.7,27.5,38,24,38z"/>
</svg>
